# xmcd
#
# Track frame offsets: 
#        150
#        12432
#        32639
#        47699
#        66244
#        84552
#        98292
#        118324
#        136939
#        151999
#        167056
#        182248
#        201085
#
# Disc length: 3197 seconds
#
# Revision: 0
# Processed by: cddbd v1.5.2PL0 Copyright (c) Steve Scherf et al.
# Submitted via: ExactAudioCopy v0.99pb5
#
DISCID=a80c7b0d
DTITLE=Various Artist - Yellow Dog Records: It's All Connected 
DYEAR=2007
DGENRE=Blues
TTITLE0=Breathin' - Asylum Street Spankers
TTITLE1=The Moon Blues - The Soul Of John Black
TTITLE2=Darkness In The Delta - Eden Brent
TTITLE3=Paper Sack - Mark Lemhouse
TTITLE4=Chicken Wants Corn - Fiona Boyes
TTITLE5=Snakes In My Garden - William Lee Ellis
TTITLE6=Deuce And A Quarter - The Bo-Keys
TTITLE7=Blues My Naughty Sweetie Gives To Me - Mary Flower
TTITLE8=Beer Drinking Woman - Big Joe Duskin
TTITLE9=Resting Place - Terry Robb
TTITLE10=Blues For Big Bill - Chris Cotton
TTITLE11=Pony Blues - Buff City Backsliders
TTITLE12=Newborn Blues - Calvin Newborn
EXTD=
EXTT0=
EXTT1=
EXTT2=
EXTT3=
EXTT4=
EXTT5=
EXTT6=
EXTT7=
EXTT8=
EXTT9=
EXTT10=
EXTT11=
EXTT12=
PLAYORDER=
